<?xml version="1.0" encoding="UTF-8" standalone="no"?>
<svg
   xmlns:dc="http://purl.org/dc/elements/1.1/"
   xmlns:cc="http://creativecommons.org/ns#"
   xmlns:rdf="http://www.w3.org/1999/02/22-rdf-syntax-ns#"
   xmlns:svg="http://www.w3.org/2000/svg"
   xmlns="http://www.w3.org/2000/svg"
   xmlns:sodipodi="http://sodipodi.sourceforge.net/DTD/sodipodi-0.dtd"
   xmlns:inkscape="http://www.inkscape.org/namespaces/inkscape"
   sodipodi:docname="drawing.svg"
   inkscape:version="1.0 (4035a4fb49, 2020-05-01)"
   id="svg865"
   version="1.1"
   viewBox="0 0 229.7451 46.649323"
   height="46.649323mm"
   width="229.7451mm">
  <defs
     id="defs859" />
  <sodipodi:namedview
     inkscape:window-maximized="1"
     inkscape:window-y="-8"
     inkscape:window-x="-8"
     inkscape:window-height="1027"
     inkscape:window-width="1920"
     fit-margin-bottom="0"
     fit-margin-right="0"
     fit-margin-left="0"
     fit-margin-top="0"
     showgrid="false"
     inkscape:document-rotation="0"
     inkscape:current-layer="layer1"
     inkscape:document-units="mm"
     inkscape:cy="-55.77144"
     inkscape:cx="558.99599"
     inkscape:zoom="0.98994949"
     inkscape:pageshadow="2"
     inkscape:pageopacity="0.0"
     borderopacity="1.0"
     bordercolor="#666666"
     pagecolor="#ffffff"
     id="base" />
  <metadata
     id="metadata862">
    <rdf:RDF>
      <cc:Work
         rdf:about="">
        <dc:format>image/svg+xml</dc:format>
        <dc:type
           rdf:resource="http://purl.org/dc/dcmitype/StillImage" />
        <dc:title></dc:title>
      </cc:Work>
    </rdf:RDF>
  </metadata>
  <g
     transform="translate(7.8415578,-133.80372)"
     style="display:inline"
     id="layer1"
     inkscape:groupmode="layer"
     inkscape:label="Layer 1">
    <g
       style="font-style:normal;font-weight:normal;font-size:50.8px;line-height:1.25;font-family:sans-serif;opacity:1;mix-blend-mode:color;fill:#e65100;fill-opacity:1;fill-rule:nonzero;stroke:#dedede;stroke-width:0.264583;stroke-miterlimit:4;stroke-dasharray:none;stroke-opacity:1"
       id="text1442"
       aria-label="Eugene Yesaulov">
      <path
         id="path1568"
         style="font-style:normal;font-variant:normal;font-weight:normal;font-stretch:normal;font-size:50.8px;font-family:'Gloucester MT Extra Condensed';-inkscape-font-specification:'Gloucester MT Extra Condensed, ';fill:#e65100;fill-opacity:1;fill-rule:nonzero;stroke:#dedede;stroke-width:0.264583;stroke-miterlimit:4;stroke-dasharray:none;stroke-opacity:1"
         d="M 9.8772569,172.6561 H -7.1139538 q -0.5953125,0 -0.5953125,-0.59532 v -1.0914 q 0,-0.5209 0.8185547,-1.14102 0.7193359,-0.5705 0.7193359,-1.78593 v -29.36875 q 0,-1.28985 -0.9177734,-1.93477 -0.6201172,-0.42168 -0.6201172,-0.99219 v -1.19062 q 0,-0.47129 0.5953125,-0.47129 H 5.6356554 q 0.3472656,0 1.3146484,-0.0744 0.868164,-0.0744 1.0914062,-0.0744 0.8185547,0 0.8185547,0.44649 v 7.29257 q 0,0.57051 -0.1240234,0.69453 -0.099219,0.0992 -0.6201172,0.0992 H 7.1983507 q -0.5953125,0 -0.6697266,-0.69453 -0.2728515,-1.93476 -0.9921875,-3.29902 -0.6945312,-1.38906 -2.8277343,-1.38906 h -3.12539058 v 14.03945 h 1.14101561 q 1.06660157,0 1.46347657,-0.39688 0.396875,-0.42168 0.9921875,-2.57968 0.1984375,-0.69453 0.2728515,-0.76895 0.074414,-0.0744 0.4464844,-0.0744 h 1.0914062 q 0.6449219,0 0.6449219,0.62011 v 9.35137 q 0,0.59531 -0.5953125,0.59531 H 3.8993273 q -0.3720703,0 -0.5208984,-0.17363 -0.1488282,-0.19844 -0.396875,-1.16582 -0.4464844,-1.76113 -0.9673828,-2.1332 -0.5208985,-0.39688 -1.43867189,-0.39688 h -0.99218749 v 15.70137 H 2.9319445 q 1.8603515,0 2.5796874,-0.86816 0.719336,-0.89297 1.7859375,-4.83692 0.2480469,-0.89297 0.8929688,-0.89297 h 1.0666015 q 0.6201172,0 0.6201172,0.62012 z" />
      <path
         id="path1570"
         style="font-style:normal;font-variant:normal;font-weight:normal;font-stretch:normal;font-size:50.8px;font-family:'Gloucester MT Extra Condensed';-inkscape-font-specification:'Gloucester MT Extra Condensed, ';fill:#e65100;fill-opacity:1;fill-rule:nonzero;stroke:#dedede;stroke-width:0.264583;stroke-miterlimit:4;stroke-dasharray:none;stroke-opacity:1"
         d="m 20.816124,168.09203 v -15.3541 q 0,-0.5705 -0.669727,-1.16582 -0.37207,-0.34726 -0.37207,-0.5457 v -1.21543 q 0,-0.44648 0.471289,-0.44648 l 5.481836,-0.0992 v 20.01738 q 0,0.59531 0.669726,1.19062 0.396875,0.34727 0.396875,0.54571 v 1.19062 q 0,0.44649 -0.496093,0.47129 l -5.481836,0.0992 v -1.95957 q -2.678906,2.15801 -4.588867,2.15801 -1.909961,0 -2.976563,-1.24024 -1.041797,-1.26504 -1.041797,-3.29902 v -15.70137 q 0,-0.5705 -0.669726,-1.16582 -0.396875,-0.34726 -0.396875,-0.5457 v -1.21543 q 0,-0.44648 0.496094,-0.44648 l 5.481835,-0.0992 v 18.5291 q 0,1.78594 1.364258,1.78594 1.190625,0 2.331641,-1.48829 z" />
      <path
         id="path1572"
         style="font-style:normal;font-variant:normal;font-weight:normal;font-stretch:normal;font-size:50.8px;font-family:'Gloucester MT Extra Condensed';-inkscape-font-specification:'Gloucester MT Extra Condensed, ';fill:#e65100;fill-opacity:1;fill-rule:nonzero;stroke:#dedede;stroke-width:0.264583;stroke-miterlimit:4;stroke-dasharray:none;stroke-opacity:1"
         d="m 38.749912,149.73657 q 1.711523,-1.73633 3.075781,-1.73633 0.868164,0 1.513086,0.5209 0.644922,0.49609 0.644922,1.31465 0,1.46347 -1.463477,1.46347 -0.471289,0 -1.066601,-0.32246 -0.471289,-0.24805 -0.669727,-0.24805 -0.396875,0 -0.79375,0.22325 1.835547,2.55488 1.835547,5.63066 0,3.86953 -1.686719,6.15156 -1.686719,2.28203 -4.71289,2.28203 -0.79375,0 -1.959571,-0.19843 l -1.265039,3.15019 h 2.282032 q 8.508007,0 8.508007,5.87871 0,3.02617 -2.282031,4.7377 -2.257227,1.73633 -5.92832,1.73633 -2.926953,0 -4.613672,-1.017 -1.661914,-1.01699 -1.661914,-2.75332 0,-0.99218 0.644922,-1.66191 0.644922,-0.64492 1.686719,-0.64492 0.967382,0 1.612304,0.57051 0.669727,0.5705 0.669727,1.43867 0,0.5209 -0.347266,1.19062 1.190625,0.57051 2.455664,0.57051 1.612305,0 2.75332,-0.84336 1.165821,-0.84336 1.165821,-2.08359 0,-2.67891 -5.903516,-2.67891 -1.190625,0 -2.877344,0.0744 -0.868164,0.0496 -1.289843,0.0496 -0.79375,0 -0.79375,-0.47129 0,-0.34726 0.37207,-1.31464 l 2.75332,-6.8709 q -2.778125,-2.40606 -2.778125,-6.94531 0,-3.54707 1.612305,-5.85391 1.637109,-2.33164 4.985742,-2.33164 1.984375,0 3.522266,0.99219 z m -3.547071,13.07207 q 1.041797,0 1.438672,-1.16582 0.396875,-1.16582 0.396875,-4.48965 0,-3.79512 -0.396875,-4.98574 -0.396875,-1.21543 -1.339453,-1.21543 -1.240234,0 -1.562695,1.78593 -0.322461,1.78594 -0.322461,5.38262 0,2.53008 0.396875,3.62149 0.396875,1.0666 1.389062,1.0666 z" />
      <path
         id="path1574"
         style="font-style:normal;font-variant:normal;font-weight:normal;font-stretch:normal;font-size:50.8px;font-family:'Gloucester MT Extra Condensed';-inkscape-font-specification:'Gloucester MT Extra Condensed, ';fill:#e65100;fill-opacity:1;fill-rule:nonzero;stroke:#dedede;stroke-width:0.264583;stroke-miterlimit:4;stroke-dasharray:none;stroke-opacity:1"
         d="m 57.539465,166.60375 q -0.570508,6.57325 -5.92832,6.57325 -3.547071,0 -5.630664,-3.00137 -2.083594,-3.00137 -2.083594,-8.9793 0,-5.80429 1.95957,-9.12812 1.984375,-3.32383 5.308203,-3.32383 2.951758,0 4.7625,2.57969 1.810742,2.57968 1.810742,6.82129 v 2.08359 q 0,0.59531 -0.620117,0.59531 h -7.739062 v 2.03399 q 0,3.34863 0.644922,5.13457 0.644921,1.78593 2.257226,1.78593 1.885156,0 2.604492,-3.62148 z m -4.564063,-8.508 v -3.42305 q 0,-3.57188 -1.835547,-3.57188 -1.761132,0 -1.761132,4.56407 v 2.43086 z" />
      <path
         id="path1576"
         style="font-style:normal;font-variant:normal;font-weight:normal;font-stretch:normal;font-size:50.8px;font-family:'Gloucester MT Extra Condensed';-inkscape-font-specification:'Gloucester MT Extra Condensed, ';fill:#e65100;fill-opacity:1;fill-rule:nonzero;stroke:#dedede;stroke-width:0.264583;stroke-miterlimit:4;stroke-dasharray:none;stroke-opacity:1"
         d="m 60.751668,168.78657 v -15.42852 q 0,-1.36426 -1.066601,-1.88516 -0.446485,-0.22324 -0.446485,-0.64492 v -0.91777 q 0,-0.44649 0.545703,-0.47129 l 5.878711,-0.17363 v 2.03398 q 2.108399,-2.25722 4.613672,-2.25722 1.860352,0 2.902148,1.43867 1.066602,1.43867 1.066602,3.7455 v 14.85801 q 0,0.76895 0.669726,1.5875 0.322461,0.39688 0.322461,0.54571 v 1.04179 q 0,0.39688 -0.37207,0.39688 h -6.052344 q -0.421679,0 -0.421679,-0.39688 v -1.28984 q 0,-0.19844 0.272851,-0.39688 0.669727,-0.52089 0.669727,-1.24023 v -15.10606 q 0,-1.81074 -1.289844,-1.81074 -1.240234,0 -2.38125,1.48828 v 15.18047 q 0,0.84336 0.570508,1.46348 0.272852,0.29766 0.272852,0.42168 v 1.36426 q 0,0.32246 -0.347266,0.32246 h -6.151562 q -0.396875,0 -0.396875,-0.37207 v -1.31465 q 0,-0.17363 0.32246,-0.42168 0.818555,-0.64492 0.818555,-1.76113 z" />
      <path
         id="path1578"
         style="font-style:normal;font-variant:normal;font-weight:normal;font-stretch:normal;font-size:50.8px;font-family:'Gloucester MT Extra Condensed';-inkscape-font-specification:'Gloucester MT Extra Condensed, ';fill:#e65100;fill-opacity:1;fill-rule:nonzero;stroke:#dedede;stroke-width:0.264583;stroke-miterlimit:4;stroke-dasharray:none;stroke-opacity:1"
         d="m 90.839754,166.60375 q -0.570508,6.57325 -5.92832,6.57325 -3.547071,0 -5.630664,-3.00137 -2.083594,-3.00137 -2.083594,-8.9793 0,-5.80429 1.95957,-9.12812 1.984375,-3.32383 5.308203,-3.32383 2.951758,0 4.7625,2.57969 1.810742,2.57968 1.810742,6.82129 v 2.08359 q 0,0.59531 -0.620117,0.59531 h -7.739062 v 2.03399 q 0,3.34863 0.644922,5.13457 0.644922,1.78593 2.257226,1.78593 1.885156,0 2.604492,-3.62148 z m -4.564063,-8.508 v -3.42305 q 0,-3.57188 -1.835546,-3.57188 -1.761133,0 -1.761133,4.56407 v 2.43086 z" />
      <path
         id="path1580"
         style="font-style:normal;font-variant:normal;font-weight:normal;font-stretch:normal;font-size:50.8px;font-family:'Gloucester MT Extra Condensed';-inkscape-font-specification:'Gloucester MT Extra Condensed, ';fill:#e65100;fill-opacity:1;fill-rule:nonzero;stroke:#dedede;stroke-width:0.264583;stroke-miterlimit:4;stroke-dasharray:none;stroke-opacity:1"
         d="m 113.95772,155.46645 v 12.57598 q 0,1.28984 0.96739,1.93476 0.62011,0.42168 0.62011,0.99219 v 1.11621 q 0,0.57051 -0.64492,0.57051 h -7.73906 q -0.5457,0 -0.5457,-0.5209 v -1.16582 q 0,-0.5457 0.64492,-0.99219 0.94258,-0.66973 0.94258,-1.93476 v -12.57598 l -4.96094,-16.79277 q -0.47129,-1.48829 -1.48828,-1.95957 -0.57051,-0.24805 -0.57051,-0.84336 v -1.24024 q 0,-0.5457 0.47129,-0.5457 h 8.01191 q 0.69453,0 0.69453,0.64492 v 1.19063 q 0,0.44648 -0.69453,0.69453 -1.0914,0.39687 -1.0914,1.14101 0,0.24805 0.0992,0.54571 l 3.62149,12.05507 3.24941,-11.03808 q 0.17364,-0.62012 0.17364,-1.19063 0,-0.94258 -1.11622,-1.43867 -0.64492,-0.27285 -0.64492,-0.71933 v -1.31465 q 0,-0.57051 0.57051,-0.57051 h 6.20117 q 0.71934,0 0.71934,0.5457 v 1.28985 q 0,0.5457 -0.71934,0.86816 -1.41386,0.69453 -1.83554,2.08359 z" />
      <path
         id="path1582"
         style="font-style:normal;font-variant:normal;font-weight:normal;font-stretch:normal;font-size:50.8px;font-family:'Gloucester MT Extra Condensed';-inkscape-font-specification:'Gloucester MT Extra Condensed, ';fill:#e65100;fill-opacity:1;fill-rule:nonzero;stroke:#dedede;stroke-width:0.264583;stroke-miterlimit:4;stroke-dasharray:none;stroke-opacity:1"
         d="m 131.50704,166.60375 q -0.57051,6.57325 -5.92832,6.57325 -3.54707,0 -5.63067,-3.00137 -2.08359,-3.00137 -2.08359,-8.9793 0,-5.80429 1.95957,-9.12812 1.98437,-3.32383 5.3082,-3.32383 2.95176,0 4.7625,2.57969 1.81074,2.57968 1.81074,6.82129 v 2.08359 q 0,0.59531 -0.62011,0.59531 h -7.73907 v 2.03399 q 0,3.34863 0.64493,5.13457 0.64492,1.78593 2.25722,1.78593 1.88516,0 2.60449,-3.62148 z m -4.56407,-8.508 v -3.42305 q 0,-3.57188 -1.83554,-3.57188 -1.76114,0 -1.76114,4.56407 v 2.43086 z" />
      <path
         id="path1584"
         style="font-style:normal;font-variant:normal;font-weight:normal;font-stretch:normal;font-size:50.8px;font-family:'Gloucester MT Extra Condensed';-inkscape-font-specification:'Gloucester MT Extra Condensed, ';fill:#e65100;fill-opacity:1;fill-rule:nonzero;stroke:#dedede;stroke-width:0.264583;stroke-miterlimit:4;stroke-dasharray:none;stroke-opacity:1"
         d="m 140.59795,148.74438 q 2.43086,0 3.99356,1.21543 1.5875,1.21543 1.5875,3.07578 0,1.0666 -0.74415,1.83555 -0.71933,0.76894 -1.88515,0.76894 -0.94258,0 -1.68672,-0.5457 -0.71934,-0.57051 -0.71934,-1.61231 0,-0.42168 0.22325,-0.94257 0.14882,-0.34727 0.14882,-0.5209 0,-0.86817 -1.31464,-0.86817 -0.94258,0 -1.68672,0.69453 -0.71934,0.66973 -0.71934,1.88516 0,1.0418 0.66973,1.98438 0.66972,0.91777 3.52226,2.97656 2.75332,1.98437 3.84473,3.67109 1.09141,1.66192 1.09141,3.77031 0,3.34864 -2.15801,5.20899 -2.15801,1.83555 -5.13457,1.83555 -2.82774,0 -4.58887,-1.33946 -1.73633,-1.36426 -1.73633,-3.44785 0,-1.14101 0.69453,-1.95957 0.69454,-0.84336 2.00918,-0.84336 2.38125,0 2.38125,2.25723 0,0.37207 -0.14882,0.96738 -0.14883,0.5457 -0.14883,0.76895 0,1.21543 1.73633,1.21543 1.31464,0 2.18281,-0.81856 0.86816,-0.84336 0.86816,-1.90996 0,-1.16582 -0.76894,-2.1332 -0.74414,-0.99219 -2.95176,-2.67891 -2.97656,-2.28203 -4.19199,-3.91914 -1.21543,-1.66191 -1.21543,-3.96875 0,-2.95176 2.08359,-4.7873 2.08359,-1.83555 4.7625,-1.83555 z" />
      <path
         id="path1586"
         style="font-style:normal;font-variant:normal;font-weight:normal;font-stretch:normal;font-size:50.8px;font-family:'Gloucester MT Extra Condensed';-inkscape-font-specification:'Gloucester MT Extra Condensed, ';fill:#e65100;fill-opacity:1;fill-rule:nonzero;stroke:#dedede;stroke-width:0.264583;stroke-miterlimit:4;stroke-dasharray:none;stroke-opacity:1"
         d="m 156.84503,157.74848 v -3.47266 q 0,-3.07578 -2.38125,-3.07578 -0.84336,0 -0.84336,0.5209 0,0.19844 0.14883,0.59531 0.29765,0.71934 0.29765,1.24024 0,0.94258 -0.62011,1.6123 -0.62012,0.64492 -1.71153,0.64492 -1.19062,0 -1.90996,-0.71933 -0.71933,-0.74414 -0.71933,-1.93477 0,-1.95957 1.73632,-3.175 1.76114,-1.24023 4.06797,-1.24023 3.24942,0 5.03535,1.76113 1.81075,1.73633 1.81075,4.93613 v 12.35274 q 0,1.01699 0.19843,1.56269 0.22325,0.5209 0.94258,0.66973 0.59531,0.12402 0.59531,0.64492 v 1.0666 q 0,1.31465 -2.03398,1.31465 -2.72852,0 -3.77031,-2.62929 -2.38125,2.75332 -4.58887,2.75332 -2.1084,0 -3.47266,-1.73633 -1.36425,-1.76114 -1.36425,-4.48965 0,-6.99492 8.58242,-9.20254 z m 0,2.53008 q -3.49746,1.28984 -3.49746,5.68027 0,3.44785 1.81074,3.44785 0.79375,0 1.24023,-0.76894 0.44649,-0.79375 0.44649,-1.73633 z" />
      <path
         id="path1588"
         style="font-style:normal;font-variant:normal;font-weight:normal;font-stretch:normal;font-size:50.8px;font-family:'Gloucester MT Extra Condensed';-inkscape-font-specification:'Gloucester MT Extra Condensed, ';fill:#e65100;fill-opacity:1;fill-rule:nonzero;stroke:#dedede;stroke-width:0.264583;stroke-miterlimit:4;stroke-dasharray:none;stroke-opacity:1"
         d="m 174.00987,168.09203 v -15.3541 q 0,-0.5705 -0.66972,-1.16582 -0.37207,-0.34726 -0.37207,-0.5457 v -1.21543 q 0,-0.44648 0.47129,-0.44648 l 5.48183,-0.0992 v 20.01738 q 0,0.59531 0.66973,1.19062 0.39687,0.34727 0.39687,0.54571 v 1.19062 q 0,0.44649 -0.49609,0.47129 l -5.48184,0.0992 v -1.95957 q -2.6789,2.15801 -4.58886,2.15801 -1.90996,0 -2.97657,-1.24024 -1.04179,-1.26504 -1.04179,-3.29902 v -15.70137 q 0,-0.5705 -0.66973,-1.16582 -0.39687,-0.34726 -0.39687,-0.5457 v -1.21543 q 0,-0.44648 0.49609,-0.44648 l 5.48184,-0.0992 v 18.5291 q 0,1.78594 1.36425,1.78594 1.19063,0 2.33164,-1.48829 z" />
      <path
         id="path1590"
         style="font-style:normal;font-variant:normal;font-weight:normal;font-stretch:normal;font-size:50.8px;font-family:'Gloucester MT Extra Condensed';-inkscape-font-specification:'Gloucester MT Extra Condensed, ';fill:#e65100;fill-opacity:1;fill-rule:nonzero;stroke:#dedede;stroke-width:0.264583;stroke-miterlimit:4;stroke-dasharray:none;stroke-opacity:1"
         d="m 187.60284,134.08481 v 34.62734 q 0,1.28985 1.0666,1.83555 0.44649,0.24805 0.44649,0.71933 v 0.91778 q 0,0.47129 -0.54571,0.47129 h -6.84609 q -0.5457,0 -0.5457,-0.47129 v -0.91778 q 0,-0.49609 0.47129,-0.71933 1.04179,-0.5209 1.04179,-1.83555 v -30.53457 q 0,-1.33945 -1.0666,-1.88515 -0.44648,-0.22325 -0.44648,-0.64493 v -0.91777 q 0,-0.44648 0.5457,-0.44648 z" />
      <path
         id="path1592"
         style="font-style:normal;font-variant:normal;font-weight:normal;font-stretch:normal;font-size:50.8px;font-family:'Gloucester MT Extra Condensed';-inkscape-font-specification:'Gloucester MT Extra Condensed, ';fill:#e65100;fill-opacity:1;fill-rule:nonzero;stroke:#dedede;stroke-width:0.264583;stroke-miterlimit:4;stroke-dasharray:none;stroke-opacity:1"
         d="m 197.9712,148.74438 q 7.83828,0 7.83828,12.32793 0,5.8043 -1.93477,8.95449 -1.93476,3.1502 -5.58105,3.1502 -3.6959,0 -5.70508,-3.07579 -1.98438,-3.10058 -1.98438,-9.17773 0,-6.35 2.0836,-9.25215 2.08359,-2.92695 5.2834,-2.92695 z m 2.40605,9.84746 q 0,-4.2416 -0.5209,-5.8043 -0.5209,-1.5875 -1.68672,-1.5875 -2.158,0 -2.158,6.00274 v 5.60586 q 0,4.46484 0.47129,6.20117 0.49609,1.71152 1.78593,1.71152 1.09141,0 1.5875,-1.31465 0.5209,-1.33945 0.5209,-4.91132 z" />
      <path
         id="path1594"
         style="font-style:normal;font-variant:normal;font-weight:normal;font-stretch:normal;font-size:50.8px;font-family:'Gloucester MT Extra Condensed';-inkscape-font-specification:'Gloucester MT Extra Condensed, ';fill:#e65100;fill-opacity:1;fill-rule:nonzero;stroke:#dedede;stroke-width:0.264583;stroke-miterlimit:4;stroke-dasharray:none;stroke-opacity:1"
         d="m 219.91095,153.20922 -4.91133,19.12442 q -0.12402,0.49609 -0.5457,0.49609 h -1.16582 q -0.44649,0 -0.57051,-0.49609 l -4.63848,-19.12442 q -0.34726,-1.48828 -1.16582,-1.90996 -0.42168,-0.22324 -0.42168,-0.71933 v -0.79375 q 0,-0.5209 0.5209,-0.5209 h 6.17637 q 0.57051,0 0.57051,0.49609 v 0.94258 q 0,0.47129 -0.54571,0.76894 -0.79375,0.47129 -0.79375,1.09141 0,0.32246 0.0744,0.64492 l 2.50527,10.29395 2.40605,-9.87227 q 0.0744,-0.32246 0.0744,-0.64492 0,-1.09141 -1.21543,-1.71152 -0.49609,-0.24805 -0.49609,-0.42168 v -1.11621 q 0,-0.47129 0.52089,-0.47129 h 5.01055 q 0.47129,0 0.47129,0.47129 v 1.11621 q 0,0.37207 -0.49609,0.57051 -1.017,0.39687 -1.36426,1.78593 z" />
    </g>
  </g>
</svg>
