<?xml version="1.0" encoding="UTF-8" standalone="no"?>
<svg
   xmlns:dc="http://purl.org/dc/elements/1.1/"
   xmlns:cc="http://creativecommons.org/ns#"
   xmlns:rdf="http://www.w3.org/1999/02/22-rdf-syntax-ns#"
   xmlns:svg="http://www.w3.org/2000/svg"
   xmlns="http://www.w3.org/2000/svg"
   xmlns:sodipodi="http://sodipodi.sourceforge.net/DTD/sodipodi-0.dtd"
   xmlns:inkscape="http://www.inkscape.org/namespaces/inkscape"
   inkscape:version="1.0 (4035a4fb49, 2020-05-01)"
   sodipodi:docname="iphone-x.svg"
   xml:space="preserve"
   style="enable-background:new 0 0 478 828;"
   viewBox="0 0 478 828"
   y="0px"
   x="0px"
   id="Layer_1"
   version="1.1"><metadata
   id="metadata21"><rdf:RDF><cc:Work
       rdf:about=""><dc:format>image/svg+xml</dc:format><dc:type
         rdf:resource="http://purl.org/dc/dcmitype/StillImage" /><dc:title></dc:title></cc:Work></rdf:RDF></metadata><defs
   id="defs19">
	
	
	
	
	
	
	
	
</defs><sodipodi:namedview
   inkscape:current-layer="Layer_1"
   inkscape:window-maximized="1"
   inkscape:window-y="-8"
   inkscape:window-x="-8"
   inkscape:cy="452.51163"
   inkscape:cx="239"
   inkscape:zoom="1.0386473"
   showgrid="false"
   id="namedview17"
   inkscape:window-height="1027"
   inkscape:window-width="1920"
   inkscape:pageshadow="2"
   inkscape:pageopacity="0"
   guidetolerance="10"
   gridtolerance="10"
   objecttolerance="10"
   borderopacity="1"
   bordercolor="#666666"
   pagecolor="#ffffff" />
<style
   id="style2"
   type="text/css">
	.st0{fill:none;stroke:#000000;stroke-miterlimit:10;}
</style>
<path
   id="XMLID_22_"
   class="st0"
   d="m 364.5,73.6 c 17.5,0 31.6,14.2 31.6,31.6 v 613.3 c 0,17.5 -14.2,31.6 -31.6,31.6 h -249 C 98,750.1 83.9,735.9 83.9,718.5 V 105.2 c 0,-17.5 14.2,-31.6 31.6,-31.6 h 28.8 c 6.1,0 8.3,0 8.7,7.7 0.4,8 5.9,12.9 13.3,15.2 2.5,0.8 5.3,0.9 8,0.9 h 5.4 120.7 5.4 c 2.7,0 5.5,-0.1 8,-0.9 7.4,-2.3 13,-7.2 13.3,-15.2 0.4,-7.7 2.6,-7.7 8.7,-7.7 z" /><path
   style="fill:#333333"
   id="XMLID_30_"
   class="st0"
   d="m 415.5,721.4 c 0,28.8 -23.3,52.1 -52.1,52.1 H 114.6 c -28.8,0 -52.1,-23.3 -52.1,-52.1 V 107.6 c 0,-28.8 23.3,-52.1 52.1,-52.1 h 248.8 c 28.8,0 52.1,23.3 52.1,52.1 z" /><path
   style="fill:#cccccc"
   id="XMLID_29_"
   class="st0"
   d="m 407.5,720.9 c 0,24.6 -20,44.6 -44.6,44.6 H 114.1 c -24.6,0 -44.6,-20 -44.6,-44.6 V 107.1 c 0,-24.6 20,-44.6 44.6,-44.6 h 248.8 c 24.6,0 44.6,20 44.6,44.6 z" /><polyline
   style="fill:#1a1a1a"
   id="XMLID_20_"
   class="st0"
   points="62.7,149.1 58.8,149.1 58.8,176.3 62.7,176.3  " /><polyline
   style="fill:#1a1a1a"
   id="XMLID_23_"
   class="st0"
   points="415.3,301.2 419.2,301.2 419.2,217.7 415.3,217.7  " /><g
   style="fill:#1a1a1a"
   id="XMLID_24_">
		<polyline
   style="fill:#1a1a1a"
   id="XMLID_26_"
   class="st0"
   points="62.7,201.4 58.8,201.4 58.8,252.2 62.7,252.2   " />
		<polyline
   style="fill:#1a1a1a"
   id="XMLID_25_"
   class="st0"
   points="62.7,266.7 58.8,266.7 58.8,317.5 62.7,317.5   " />
	</g><g
   style="fill:#333333"
   id="XMLID_45_">
		<path
   style="fill:#333333"
   id="XMLID_47_"
   class="st0"
   d="m 259.9,82.5 h -39 c -1.7,0 -3,-1 -3,-2.5 0,-1.5 1.3,-2.5 3,-2.5 h 39 c 1.7,0 3,1 3,2.5 0,1.5 -1.4,2.5 -3,2.5 z" />
	</g><circle
   style="fill:#333333"
   id="XMLID_49_"
   class="st0"
   cx="276"
   cy="78.900002"
   r="4.4000001" />
</svg>
