<?xml version="1.0" encoding="UTF-8" standalone="no"?>
<svg
   xmlns:dc="http://purl.org/dc/elements/1.1/"
   xmlns:cc="http://creativecommons.org/ns#"
   xmlns:rdf="http://www.w3.org/1999/02/22-rdf-syntax-ns#"
   xmlns:svg="http://www.w3.org/2000/svg"
   xmlns="http://www.w3.org/2000/svg"
   xmlns:sodipodi="http://sodipodi.sourceforge.net/DTD/sodipodi-0.dtd"
   xmlns:inkscape="http://www.inkscape.org/namespaces/inkscape"
   height="718"
   width="361.39999"
   inkscape:version="1.0 (4035a4fb49, 2020-05-01)"
   sodipodi:docname="iphone-x-temp.svg"
   xml:space="preserve"
   viewBox="0 0 361.39999 718"
   y="0px"
   x="0px"
   id="Layer_1"
   version="1.1"><metadata
   id="metadata21"><rdf:RDF><cc:Work
       rdf:about=""><dc:format>image/svg+xml</dc:format><dc:type
         rdf:resource="http://purl.org/dc/dcmitype/StillImage" /><dc:title></dc:title></cc:Work></rdf:RDF></metadata><defs
   id="defs19">
	
	
	
	
	
	
	
	
</defs><sodipodi:namedview
   fit-margin-bottom="0"
   fit-margin-right="0"
   fit-margin-left="0"
   fit-margin-top="0"
   inkscape:current-layer="Layer_1"
   inkscape:window-maximized="1"
   inkscape:window-y="-8"
   inkscape:window-x="-8"
   inkscape:cy="383.91264"
   inkscape:cx="160.08019"
   inkscape:zoom="0.73443458"
   showgrid="false"
   id="namedview17"
   inkscape:window-height="1027"
   inkscape:window-width="1920"
   inkscape:pageshadow="2"
   inkscape:pageopacity="0"
   guidetolerance="10"
   gridtolerance="10"
   objecttolerance="10"
   borderopacity="1"
   bordercolor="#666666"
   pagecolor="#ffffff"><inkscape:grid
     originy="-55.5"
     originx="-58.299999"
     id="grid893"
     type="xygrid" /></sodipodi:namedview>
<style
   id="style2"
   type="text/css">
	.st0{fill:none;stroke:#000000;stroke-miterlimit:10;}
</style>
<path
   sodipodi:nodetypes="sssssssssssccsccsccsssssssss"
   d="M 56.29961,0 C 27.499608,0 4.2,23.299608 4.2,52.09961 V 665.90039 C 4.2,694.70039 27.499608,718 56.29961,718 h 248.80078 c 28.8,0 52.09961,-23.29961 52.09961,-52.09961 V 52.09961 C 357.2,23.299608 333.90039,0 305.10039,0 Z m 0.7793,18.099609 h 28.72461 c 6.08393,0 8.27684,0.0012 8.67578,7.701172 0.39895,8 5.88511,12.899219 13.26562,15.199219 2.49341,0.8 5.28758,0.900391 7.98047,0.900391 h 5.38281 120.38477 5.38476 c 2.69289,0 5.48705,-0.100391 7.98047,-0.900391 7.3805,-2.3 12.96446,-7.199219 13.26368,-15.199219 0.39893,-7.7 2.59379,-7.701172 8.67773,-7.701172 h 28.62305 c 17.4539,0 31.51757,14.199609 31.51757,31.599611 V 663 c 0,17.5 -14.1634,31.59961 -31.51757,31.59961 H 57.07891 C 39.625004,694.59961 25.563281,680.4 25.563281,663 V 49.69922 c 0,-17.500002 14.161459,-31.599611 31.515629,-31.599611 z"
   style="fill:#333333;stroke:none;stroke-width:0.99994;stroke-miterlimit:10"
   id="XMLID_29_-4" /><polyline
   transform="translate(-58.3,-55.5)"
   style="fill:#000000"
   id="XMLID_20_"
   class="st0"
   points="62.7,149.1 58.8,149.1 58.8,176.3 62.7,176.3  " /><polyline
   transform="translate(-58.3,-55.5)"
   style="fill:#000000"
   id="XMLID_23_"
   class="st0"
   points="415.3,301.2 419.2,301.2 419.2,217.7 415.3,217.7  " /><g
   transform="translate(-58.3,-55.5)"
   style="fill:#000000"
   id="XMLID_24_">
		<polyline
   style="fill:#000000"
   id="XMLID_26_"
   class="st0"
   points="62.7,201.4 58.8,201.4 58.8,252.2 62.7,252.2   " />
		<polyline
   style="fill:#000000"
   id="XMLID_25_"
   class="st0"
   points="62.7,266.7 58.8,266.7 58.8,317.5 62.7,317.5   " />
	</g><g
   transform="translate(-58.3,-55.5)"
   style="fill:#000000"
   id="XMLID_45_">
		<path
   style="fill:#000000;stroke:none"
   id="XMLID_47_"
   class="st0"
   d="m 259.9,82.5 h -39 c -1.7,0 -3,-1 -3,-2.5 0,-1.5 1.3,-2.5 3,-2.5 h 39 c 1.7,0 3,1 3,2.5 0,1.5 -1.4,2.5 -3,2.5 z" />
	</g><circle
   style="fill:#000000;stroke:none"
   id="XMLID_49_"
   class="st0"
   cx="217.7"
   cy="23.400002"
   r="4.4000001" />
</svg>
