<?xml version="1.0" encoding="UTF-8" standalone="no"?>
<svg
   xmlns:dc="http://purl.org/dc/elements/1.1/"
   xmlns:cc="http://creativecommons.org/ns#"
   xmlns:rdf="http://www.w3.org/1999/02/22-rdf-syntax-ns#"
   xmlns:svg="http://www.w3.org/2000/svg"
   xmlns="http://www.w3.org/2000/svg"
   xmlns:sodipodi="http://sodipodi.sourceforge.net/DTD/sodipodi-0.dtd"
   xmlns:inkscape="http://www.inkscape.org/namespaces/inkscape"
   inkscape:version="1.0 (4035a4fb49, 2020-05-01)"
   height="249.39999"
   width="474.40601"
   sodipodi:docname="macbookpro.svg"
   x="0px"
   y="0px"
   enable-background="new 0 0 640 480"
   viewBox="0 0 474.40601 249.39999"
   xml:space="preserve"
   version="1.1"
   id="Layer_1"><defs
   id="defs83" /><sodipodi:namedview
   inkscape:current-layer="Layer_1"
   inkscape:window-maximized="1"
   inkscape:window-y="-8"
   inkscape:window-x="-8"
   inkscape:cy="169.13113"
   inkscape:cx="164.32087"
   inkscape:zoom="1.7916667"
   fit-margin-bottom="0"
   fit-margin-right="0"
   fit-margin-left="0"
   fit-margin-top="0"
   showgrid="false"
   id="namedview81"
   inkscape:window-height="1027"
   inkscape:window-width="1920"
   inkscape:pageshadow="2"
   inkscape:pageopacity="0"
   guidetolerance="10"
   gridtolerance="10"
   objecttolerance="10"
   borderopacity="1"
   bordercolor="#666666"
   pagecolor="#ffffff" />
				<linearGradient
   gradientTransform="translate(-82.794,-113.274)"
   x1="147.44"
   x2="487.73999"
   y1="116.71"
   gradientUnits="userSpaceOnUse"
   y2="352.25"
   id="SVGID_1_">
					<stop
   id="stop2"
   offset="0"
   stop-color="#999" />
					<stop
   id="stop4"
   offset="1"
   stop-color="#4D4D4D" />
				</linearGradient>
				
				<linearGradient
   gradientTransform="translate(-82.794,-113.274)"
   x1="491.5"
   x2="154.16"
   y1="282.89999"
   gradientUnits="userSpaceOnUse"
   y2="195.63"
   id="SVGID_2_">
					<stop
   id="stop9"
   offset="0"
   stop-color="#999" />
					<stop
   id="stop11"
   offset="1"
   stop-color="#666" />
				</linearGradient>
				<path
   d="M 79.027344 5.8554688 C 72.763344 5.8554688 67.685547 10.931313 67.685547 17.195312 L 67.685547 233.30664 C 67.685547 239.56964 72.763344 244.64648 79.027344 244.64648 L 395.29688 244.64648 C 401.55888 244.64648 406.63672 239.57064 406.63672 233.30664 L 406.63672 17.195312 C 406.63672 10.931313 401.55888 5.8554688 395.29688 5.8554688 L 79.027344 5.8554688 z M 76.246094 15.90625 L 398.15625 15.90625 L 398.15625 210.75586 L 76.246094 210.75586 L 76.246094 15.90625 z "
   id="path16" /><path
   d="M 79.025391 3.5136719 C 71.480391 3.5136719 65.34375 9.6513125 65.34375 17.195312 L 65.34375 233.30469 C 65.34375 240.84869 71.480391 246.98633 79.025391 246.98633 L 395.29688 246.98633 C 402.83987 246.98633 408.97461 240.84869 408.97461 233.30469 L 408.97461 17.195312 C 408.97461 9.6513125 402.84087 3.5136719 395.29688 3.5136719 L 79.025391 3.5136719 z M 76.246094 15.90625 L 398.15625 15.90625 L 398.15625 210.75586 L 76.246094 210.75586 L 76.246094 15.90625 z "
   style="fill:#000000"
   id="path14" />
				
			<linearGradient
   gradientTransform="translate(-82.794,-113.274)"
   x1="85.970001"
   x2="555.44"
   y1="362.89001"
   gradientUnits="userSpaceOnUse"
   y2="347.67001"
   id="SVGID_3_">
				<stop
   id="stop18"
   offset="0"
   stop-color="#666" />
				<stop
   id="stop20"
   offset=".3031"
   stop-color="#636363" />
				<stop
   id="stop22"
   offset=".5649"
   stop-color="#585858" />
				<stop
   id="stop24"
   offset=".8107"
   stop-color="#464646" />
				<stop
   id="stop26"
   offset="1"
   stop-color="#333" />
			</linearGradient>
			<path
   style="fill:url(#SVGID_3_)"
   id="path29"
   fill="url(#SVGID_3_)"
   d="m 474.406,242.166 c 0,3.996 -12.265,7.234 -16.943,7.234 H 16.943 C 12.264,249.4 0,246.162 0,242.166 c 0,-3.992 3.792,-7.228 8.471,-7.228 h 457.46 c 4.68,0 8.47,3.24 8.47,7.23 z" />
			<linearGradient
   gradientTransform="translate(-82.794,-113.274)"
   x1="82.800003"
   x2="557.20001"
   y1="348.20999"
   gradientUnits="userSpaceOnUse"
   y2="348.20999"
   id="SVGID_4_">
				<stop
   id="stop31"
   offset="0"
   stop-color="#666" />
				<stop
   id="stop33"
   offset=".002"
   stop-color="#777" />
				<stop
   id="stop35"
   offset=".0065"
   stop-color="#999" />
				<stop
   id="stop37"
   offset=".0114"
   stop-color="#B5B5B5" />
				<stop
   id="stop39"
   offset=".0167"
   stop-color="#CBCBCB" />
				<stop
   id="stop41"
   offset=".0224"
   stop-color="#DADADA" />
				<stop
   id="stop43"
   offset=".0291"
   stop-color="#E3E3E3" />
				<stop
   id="stop45"
   offset=".0388"
   stop-color="#E6E6E6" />
				<stop
   id="stop47"
   offset=".0502"
   stop-color="#D4D4D4" />
				<stop
   id="stop49"
   offset=".0684"
   stop-color="#BEBEBE" />
				<stop
   id="stop51"
   offset=".0899"
   stop-color="#ADADAD" />
				<stop
   id="stop53"
   offset=".1166"
   stop-color="#A2A2A2" />
				<stop
   id="stop55"
   offset=".1539"
   stop-color="#9B9B9B" />
				<stop
   id="stop57"
   offset=".2577"
   stop-color="#999" />
				<stop
   id="stop59"
   offset=".9444"
   stop-color="#666" />
				<stop
   id="stop61"
   offset=".9518"
   stop-color="#7A7A7A" />
				<stop
   id="stop63"
   offset=".9668"
   stop-color="#AFAFAF" />
				<stop
   id="stop65"
   offset=".9811"
   stop-color="#E6E6E6" />
				<stop
   id="stop67"
   offset="1"
   stop-color="#333" />
			</linearGradient>
			<rect
   style="fill:url(#SVGID_4_)"
   id="rect70"
   height="14.464"
   width="474.39999"
   fill="url(#SVGID_4_)"
   x="0.0060030515"
   y="227.70601" />
			
		<path
   id="path74"
   d="m 451.426,235.136 c 0,0.524 -0.786,0.951 -1.758,0.951 h -8.438 c -0.972,0 -1.757,-0.427 -1.757,-0.951 0,-0.526 0.785,-0.949 1.757,-0.949 h 8.438 c 0.97,0 1.76,0.42 1.76,0.95 z" />
	<path
   id="path76"
   fill="#3e3d3d"
   d="m 269.926,232.596 h -65.431 c -1.408,0 -2.551,-1.065 -2.551,-2.378 v -2.38 h 70.532 v 2.38 c 0,1.31 -1.15,2.38 -2.55,2.38 z" />
<metadata
   id="metadata78"><rdf:RDF><cc:Work><dc:format>image/svg+xml</dc:format><dc:type
         rdf:resource="http://purl.org/dc/dcmitype/StillImage" /><cc:license
         rdf:resource="http://creativecommons.org/publicdomain/zero/1.0/" /><dc:publisher><cc:Agent
           rdf:about="http://openclipart.org/"><dc:title>Openclipart</dc:title></cc:Agent></dc:publisher><dc:title>Laptop</dc:title><dc:date>2013-07-09T10:44:02</dc:date><dc:description>MacBook Pro -like laptop. Made with Adobe Illustrator.</dc:description><dc:source>https://openclipart.org/detail/180140/laptop-by-willwill-180140</dc:source><dc:creator><cc:Agent><dc:title>willwill</dc:title></cc:Agent></dc:creator><dc:subject><rdf:Bag><rdf:li>apple</rdf:li><rdf:li>computer</rdf:li><rdf:li>laptot</rdf:li><rdf:li>macbook pro</rdf:li></rdf:Bag></dc:subject></cc:Work><cc:License
       rdf:about="http://creativecommons.org/publicdomain/zero/1.0/"><cc:permits
         rdf:resource="http://creativecommons.org/ns#Reproduction" /><cc:permits
         rdf:resource="http://creativecommons.org/ns#Distribution" /><cc:permits
         rdf:resource="http://creativecommons.org/ns#DerivativeWorks" /></cc:License></rdf:RDF></metadata></svg>
